<svg width="32" height="33" viewBox="0 0 32 33" fill="none" xmlns="http://www.w3.org/2000/svg">
<path fill-rule="evenodd" clip-rule="evenodd" d="M25.6612 8.17463C25.9416 8.42179 26.0608 8.80472 25.9701 9.16736L21.9701 25.1674C21.8828 25.5169 21.6141 25.7924 21.2669 25.8885C20.9197 25.9847 20.5476 25.8867 20.2929 25.6319L16.1082 21.4472L13.8 24.5248C13.5768 24.8224 13.207 24.9715 12.8398 24.9119C12.4727 24.8523 12.1689 24.5939 12.0513 24.2411L10.1823 18.634L6.55279 16.8193C6.19901 16.6424 5.98274 16.2736 6.00108 15.8785C6.01942 15.4834 6.26892 15.1362 6.63756 14.9928L24.6376 7.99282C24.9859 7.85734 25.3808 7.92747 25.6612 8.17463ZM16.7193 19.2299C16.7119 19.2223 16.7044 19.2147 16.6967 19.2073L16.4142 18.9248L19.7071 15.6319C20.0976 15.2414 20.0976 14.6082 19.7071 14.2177C19.3166 13.8272 18.6834 13.8272 18.2929 14.2177L14.2929 18.2177C13.9024 18.6082 13.9024 19.2414 14.2929 19.6319L14.6796 20.0187L13.3451 21.798L11.9487 17.6086C11.8648 17.357 11.6844 17.149 11.4472 17.0304L9.46487 16.0392L23.5611 10.5574L20.4582 22.9688L16.7193 19.2299Z" fill="#DEE2E6"/>
</svg>
