<svg width="32" height="32" viewBox="0 0 32 32" fill="none" xmlns="http://www.w3.org/2000/svg">
<path fill-rule="evenodd" clip-rule="evenodd" d="M15.368 5.55736L7.38739 10.3085C7.37592 10.3153 7.36434 10.322 7.35267 10.3285C7.1448 10.4439 6.97159 10.6128 6.85097 10.8177C6.73041 11.0225 6.66678 11.2558 6.66667 11.4935C6.66667 11.4936 6.66667 11.4934 6.66667 11.4935V20.2089C6.66692 20.4464 6.73061 20.6796 6.85114 20.8842C6.97175 21.089 7.1449 21.2578 7.35267 21.3732C7.37658 21.3864 7.40009 21.4005 7.42314 21.4152L15.3826 26.5C15.573 26.5994 15.7848 26.6515 16 26.6515C16.2152 26.6515 16.427 26.5994 16.6174 26.5L24.5769 21.4152C24.5999 21.4005 24.6234 21.3864 24.6473 21.3732C24.8552 21.2577 25.0284 21.0888 25.149 20.8839C25.2696 20.6791 25.3332 20.4458 25.3333 20.2081C25.3333 20.208 25.3333 20.2082 25.3333 20.2081V11.4835C25.3351 11.2478 25.2744 11.0158 25.1572 10.8112C25.0401 10.6066 24.8709 10.4367 24.6667 10.3189C24.5939 10.2768 24.5262 10.2287 24.4642 10.1754L16.7093 5.55732C16.5034 5.44582 16.2729 5.38737 16.0387 5.38737C15.8044 5.38737 15.5739 5.44584 15.368 5.55736ZM26.2771 8.18497C26.2098 8.12279 26.1353 8.06687 26.0542 8.01855L18.0542 3.25455C18.0431 3.24792 18.0318 3.24145 18.0205 3.23514C17.4144 2.89777 16.7323 2.7207 16.0387 2.7207C15.345 2.7207 14.6629 2.89777 14.0568 3.23514C14.0455 3.24142 14.0344 3.24786 14.0233 3.25446L6.03874 8.00792C5.42371 8.35392 4.91104 8.85655 4.55292 9.4649C4.19107 10.0796 4.00017 10.7799 4 11.4932V20.2095C4.00053 20.9224 4.19159 21.6233 4.55343 22.2376C4.90762 22.8389 5.41283 23.3369 6.01863 23.6823L13.9875 28.7731C14.0106 28.7878 14.0341 28.8018 14.058 28.8151C14.6521 29.145 15.3204 29.3182 16 29.3182C16.6796 29.3182 17.3479 29.145 17.942 28.8151C17.9659 28.8018 17.9894 28.7878 18.0125 28.7731L25.9814 23.6823C26.5875 23.3367 27.0929 22.8384 27.4471 22.2367C27.8089 21.622 27.9998 20.9217 28 20.2085V11.4978C28.0043 10.7925 27.822 10.0986 27.4716 9.48646C27.1747 8.96785 26.7662 8.52358 26.2771 8.18497ZM16 13.3335C14.5272 13.3335 13.3333 14.5274 13.3333 16.0001C13.3333 17.4729 14.5272 18.6668 16 18.6668C17.4728 18.6668 18.6667 17.4729 18.6667 16.0001C18.6667 14.5274 17.4728 13.3335 16 13.3335ZM10.6667 16.0001C10.6667 13.0546 13.0545 10.6668 16 10.6668C18.9455 10.6668 21.3333 13.0546 21.3333 16.0001C21.3333 18.9457 18.9455 21.3335 16 21.3335C13.0545 21.3335 10.6667 18.9457 10.6667 16.0001Z" fill="#495057"/>
</svg>
