<svg width="33" height="32" viewBox="0 0 33 32" fill="none" xmlns="http://www.w3.org/2000/svg">
<g clip-path="url(#clip0_8744_5826)">
<path fill-rule="evenodd" clip-rule="evenodd" d="M8.92188 3.67969C9.65825 3.67969 10.2552 4.27664 10.2552 5.01302V9.24063C11.8088 9.78974 12.9219 11.2714 12.9219 13.013C12.9219 14.7546 11.8088 16.2363 10.2552 16.7854V26.3464C10.2552 27.0827 9.65825 27.6797 8.92188 27.6797C8.1855 27.6797 7.58854 27.0827 7.58854 26.3464V16.7854C6.03495 16.2363 4.92188 14.7546 4.92188 13.013C4.92188 11.2714 6.03495 9.78974 7.58854 9.24063V5.01302C7.58854 4.27664 8.1855 3.67969 8.92188 3.67969ZM16.9219 3.67969C17.6583 3.67969 18.2552 4.27664 18.2552 5.01302V17.2406C19.8088 17.7897 20.9219 19.2714 20.9219 21.013C20.9219 22.7546 19.8088 24.2363 18.2552 24.7854V26.3464C18.2552 27.0827 17.6583 27.6797 16.9219 27.6797C16.1855 27.6797 15.5885 27.0827 15.5885 26.3464V24.7854C14.035 24.2363 12.9219 22.7546 12.9219 21.013C12.9219 19.2714 14.035 17.7897 15.5885 17.2406V5.01302C15.5885 4.27664 16.1855 3.67969 16.9219 3.67969ZM24.9219 3.67969C25.6583 3.67969 26.2552 4.27664 26.2552 5.01302V5.24063C27.8088 5.78974 28.9219 7.2714 28.9219 9.01302C28.9219 10.7546 27.8088 12.2363 26.2552 12.7854V26.3464C26.2552 27.0827 25.6583 27.6797 24.9219 27.6797C24.1855 27.6797 23.5885 27.0827 23.5885 26.3464V12.7854C22.035 12.2363 20.9219 10.7546 20.9219 9.01302C20.9219 7.2714 22.035 5.78974 23.5885 5.24063V5.01302C23.5885 4.27664 24.1855 3.67969 24.9219 3.67969ZM24.9219 7.67969C24.1855 7.67969 23.5885 8.27664 23.5885 9.01302C23.5885 9.7494 24.1855 10.3464 24.9219 10.3464C25.6583 10.3464 26.2552 9.7494 26.2552 9.01302C26.2552 8.27664 25.6583 7.67969 24.9219 7.67969ZM8.92188 11.6797C8.1855 11.6797 7.58854 12.2766 7.58854 13.013C7.58854 13.7494 8.1855 14.3464 8.92188 14.3464C9.65825 14.3464 10.2552 13.7494 10.2552 13.013C10.2552 12.2766 9.65825 11.6797 8.92188 11.6797ZM16.9219 19.6797C16.1855 19.6797 15.5885 20.2766 15.5885 21.013C15.5885 21.7494 16.1855 22.3464 16.9219 22.3464C17.6583 22.3464 18.2552 21.7494 18.2552 21.013C18.2552 20.2766 17.6583 19.6797 16.9219 19.6797Z" fill="#495057"/>
</g>
<defs>
<clipPath id="clip0_8744_5826">
<rect width="32" height="32" fill="white" transform="translate(0.5)"/>
</clipPath>
</defs>
</svg>
