<svg width="32" height="32" viewBox="0 0 32 32" fill="none" xmlns="http://www.w3.org/2000/svg">
<path fill-rule="evenodd" clip-rule="evenodd" d="M16.9685 2.70084C16.8178 2.66581 16.6611 2.65683 16.5057 2.67561C16.3378 2.66935 16.1692 2.66619 15.9998 2.66619C15.8305 2.66619 15.6619 2.66935 15.4941 2.67561C15.3386 2.65683 15.1819 2.66581 15.0313 2.70084C8.11962 3.19702 2.6665 8.96145 2.6665 15.9995C2.6665 23.0376 8.11962 28.802 15.0313 29.2982C15.1819 29.3333 15.3386 29.3422 15.4941 29.3234C15.6619 29.3297 15.8305 29.3329 15.9998 29.3329C16.1692 29.3329 16.3378 29.3297 16.5057 29.3234C16.6611 29.3422 16.8178 29.3333 16.9685 29.2982C23.8801 28.802 29.3332 23.0376 29.3332 15.9995C29.3332 8.96147 23.8801 3.19706 16.9685 2.70084ZM12.8328 5.81088C10.2511 6.6125 8.08937 8.36843 6.76018 10.6662H11.1629C11.5438 8.99503 12.1032 7.36705 12.8328 5.81088ZM13.9069 10.6662C14.3729 8.86146 15.075 7.1193 15.9999 5.48632C16.9247 7.1193 17.6268 8.86146 18.0928 10.6662H13.9069ZM10.7114 13.3329H5.66922C5.44985 14.1852 5.33317 15.0787 5.33317 15.9995C5.33317 16.9203 5.44985 17.8139 5.66922 18.6662H10.7114C10.6127 17.7835 10.5628 16.8933 10.5628 15.9995C10.5628 15.1058 10.6127 14.2156 10.7114 13.3329ZM13.3968 18.6662C13.2857 17.7847 13.2295 16.8941 13.2295 15.9995C13.2295 15.1049 13.2857 14.2144 13.3968 13.3329H18.6029C18.714 14.2144 18.7702 15.1049 18.7702 15.9995C18.7702 16.8941 18.714 17.7847 18.6029 18.6662H13.3968ZM11.1629 21.3329H6.76018C8.08937 23.6306 10.2511 25.3866 12.8329 26.1882C12.1032 24.632 11.5438 23.004 11.1629 21.3329ZM15.9999 26.5127C15.075 24.8798 14.3729 23.1376 13.9069 21.3329H18.0928C17.6268 23.1376 16.9247 24.8798 15.9999 26.5127ZM19.1669 26.1882C21.7486 25.3865 23.9103 23.6306 25.2395 21.3329H20.8368C20.4559 23.004 19.8965 24.632 19.1669 26.1882ZM21.2883 18.6662H26.3305C26.5498 17.8139 26.6665 16.9203 26.6665 15.9995C26.6665 15.0787 26.5498 14.1852 26.3305 13.3329H21.2883C21.387 14.2156 21.4369 15.1058 21.4369 15.9995C21.4369 16.8933 21.387 17.7835 21.2883 18.6662ZM20.8368 10.6662H25.2395C23.9103 8.36844 21.7486 6.61253 19.1669 5.81089C19.8965 7.36706 20.4559 8.99504 20.8368 10.6662Z" fill="#495057"/>
</svg>
