<svg width="33" height="32" viewBox="0 0 33 32" fill="none" xmlns="http://www.w3.org/2000/svg">
<path fill-rule="evenodd" clip-rule="evenodd" d="M16.4998 2.66699C17.2362 2.66699 17.8332 3.26395 17.8332 4.00033V4.01366C17.8332 4.75004 17.2362 5.34699 16.4998 5.34699C15.7635 5.34699 15.1665 4.75004 15.1665 4.01366V4.00033C15.1665 3.26395 15.7635 2.66699 16.4998 2.66699ZM11.2998 3.85368C12.0362 3.85368 12.6331 4.45063 12.6331 5.18701V5.20035C12.6331 5.93672 12.0362 6.53368 11.2998 6.53368C10.5634 6.53368 9.96647 5.93672 9.96647 5.20035V5.18701C9.96647 4.45063 10.5634 3.85368 11.2998 3.85368ZM21.6999 3.85368C22.4363 3.85368 23.0332 4.45063 23.0332 5.18701V5.20035C23.0332 5.93672 22.4363 6.53368 21.6999 6.53368C20.9635 6.53368 20.3665 5.93672 20.3665 5.20035V5.18701C20.3665 4.45063 20.9635 3.85368 21.6999 3.85368ZM7.1132 7.18701C7.84958 7.18701 8.44653 7.78397 8.44653 8.52035V8.53368C8.44653 9.27006 7.84958 9.86701 7.1132 9.86701C6.37682 9.86701 5.77987 9.27006 5.77987 8.53368V8.52035C5.77987 7.78397 6.37682 7.18701 7.1132 7.18701ZM25.8865 7.18701C26.6229 7.18701 27.2198 7.78397 27.2198 8.52035V8.53368C27.2198 9.27006 26.6229 9.86701 25.8865 9.86701C25.1501 9.86701 24.5531 9.27006 24.5531 8.53368V8.52035C24.5531 7.78397 25.1501 7.18701 25.8865 7.18701ZM16.4998 10.667C13.5543 10.667 11.1665 13.0548 11.1665 16.0003C11.1665 18.9458 13.5543 21.3337 16.4998 21.3337C19.4454 21.3337 21.8332 18.9458 21.8332 16.0003C21.8332 13.0548 19.4454 10.667 16.4998 10.667ZM8.49984 16.0003C8.49984 11.582 12.0816 8.00033 16.4998 8.00033C20.9181 8.00033 24.4998 11.582 24.4998 16.0003C24.4998 20.4186 20.9181 24.0003 16.4998 24.0003C12.0816 24.0003 8.49984 20.4186 8.49984 16.0003ZM4.80648 12.0003C5.54286 12.0003 6.13981 12.5973 6.13981 13.3337V13.347C6.13981 14.0834 5.54286 14.6803 4.80648 14.6803C4.0701 14.6803 3.47314 14.0834 3.47314 13.347V13.3337C3.47314 12.5973 4.0701 12.0003 4.80648 12.0003ZM28.1932 12.0003C28.9296 12.0003 29.5265 12.5973 29.5265 13.3337V13.347C29.5265 14.0834 28.9296 14.6803 28.1932 14.6803C27.4568 14.6803 26.8599 14.0834 26.8599 13.347V13.3337C26.8599 12.5973 27.4568 12.0003 28.1932 12.0003ZM13.8332 16.0003C13.8332 14.5276 15.0271 13.3337 16.4998 13.3337C17.9726 13.3337 19.1665 14.5276 19.1665 16.0003C19.1665 17.4731 17.9726 18.667 16.4998 18.667C15.0271 18.667 13.8332 17.4731 13.8332 16.0003ZM4.80648 17.3337C5.54286 17.3337 6.13981 17.9306 6.13981 18.667V18.6803C6.13981 19.4167 5.54286 20.0137 4.80648 20.0137C4.0701 20.0137 3.47314 19.4167 3.47314 18.6803V18.667C3.47314 17.9306 4.0701 17.3337 4.80648 17.3337ZM28.1932 17.3337C28.9296 17.3337 29.5265 17.9306 29.5265 18.667V18.6803C29.5265 19.4167 28.9296 20.0137 28.1932 20.0137C27.4568 20.0137 26.8599 19.4167 26.8599 18.6803V18.667C26.8599 17.9306 27.4568 17.3337 28.1932 17.3337ZM7.1132 22.147C7.84958 22.147 8.44653 22.7439 8.44653 23.4803V23.4936C8.44653 24.23 7.84958 24.827 7.1132 24.827C6.37682 24.827 5.77987 24.23 5.77987 23.4936V23.4803C5.77987 22.7439 6.37682 22.147 7.1132 22.147ZM25.8865 22.147C26.6229 22.147 27.2198 22.7439 27.2198 23.4803V23.4936C27.2198 24.23 26.6229 24.827 25.8865 24.827C25.1501 24.827 24.5531 24.23 24.5531 23.4936V23.4803C24.5531 22.7439 25.1501 22.147 25.8865 22.147ZM11.2998 25.4803C12.0362 25.4803 12.6331 26.0773 12.6331 26.8136V26.827C12.6331 27.5634 12.0362 28.1603 11.2998 28.1603C10.5634 28.1603 9.96647 27.5634 9.96647 26.827V26.8136C9.96647 26.0773 10.5634 25.4803 11.2998 25.4803ZM21.6999 25.4803C22.4363 25.4803 23.0332 26.0773 23.0332 26.8136V26.827C23.0332 27.5634 22.4363 28.1603 21.6999 28.1603C20.9635 28.1603 20.3665 27.5634 20.3665 26.827V26.8136C20.3665 26.0773 20.9635 25.4803 21.6999 25.4803ZM16.4998 26.667C17.2362 26.667 17.8332 27.2639 17.8332 28.0003V28.0137C17.8332 28.75 17.2362 29.347 16.4998 29.347C15.7635 29.347 15.1665 28.75 15.1665 28.0137V28.0003C15.1665 27.2639 15.7635 26.667 16.4998 26.667Z" fill="#495057"/>
</svg>
