<svg width="156" height="63" viewBox="0 0 156 63" fill="none" xmlns="http://www.w3.org/2000/svg">
<g clip-path="url(#clip0_9437_1858)">
<path fill-rule="evenodd" clip-rule="evenodd" d="M25.1943 34.8986C23.7998 34.8471 22.3786 34.8204 20.9841 34.8338C19.4637 34.8433 17.5465 35.0283 16.1921 35.6823C14.893 36.3097 14.0784 37.3776 13.6359 38.7792C13.3974 39.5343 13.0865 41.2067 13.1322 42.0496C14.4523 41.8455 14.9712 41.6625 16.484 41.529C19.2653 41.2849 21.1806 41.3307 23.9333 41.3478C24.5743 41.3516 27.3328 41.4222 27.7181 41.3669L25.1943 34.8967V34.8986ZM28.6891 43.8878L25.49 43.8764C25.5167 44.0614 25.6693 44.4256 25.7399 44.6239L27.5426 49.6982L24.8585 49.6887C24.8547 49.6353 22.7143 44.0366 22.619 43.8821H19.3798C19.4008 44.0423 21.0661 48.3558 21.1672 48.6189L26.3675 62.1772C26.4228 62.3221 26.5564 62.6196 26.5831 62.755H29.7898C29.7765 62.5681 29.0248 60.6116 28.8989 60.2836C28.5861 59.4636 28.2923 58.6493 27.9871 57.8217C27.8726 57.5147 26.1977 53.0296 26.1729 52.8409H28.8379L32.5216 62.7531H35.8847V62.6463L28.6872 43.884L28.6891 43.8878ZM16.2131 62.7569H23.6052V62.6882C23.4889 62.3106 23.3038 61.8797 23.1512 61.5002C22.6972 60.3618 22.268 59.1432 21.8063 57.9819C21.1825 56.4144 16.5088 44.008 16.4229 43.8726H13.2734C13.2887 44.1834 13.9315 48.1937 13.9983 48.617L15.4691 57.9953C15.5378 58.4434 16.1845 62.3545 16.2036 62.6653L16.2131 62.7588V62.7569ZM7.48179 62.7569H13.405C13.4069 62.3259 12.2471 55.9568 12.1422 55.3599C11.7091 52.8866 11.2971 50.4267 10.9022 47.9381C10.7019 46.6739 10.534 45.3905 10.3852 44.1167C10.2364 42.8467 10.0151 41.3955 10.1239 40.0988C10.2345 38.783 10.4596 37.7208 10.9632 36.6263C11.3314 35.8254 11.6767 35.2628 12.167 34.5763C12.7412 33.7773 12.7202 34.1721 12.3749 33.2701L0 0.924805L7.48179 62.7569Z" fill="white"/>
<path d="M145.967 38.2243C145.967 37.4501 146.354 37.063 147.128 37.063H152.941V40.5489H147.128C146.354 40.5489 145.967 40.1617 145.967 39.3875V38.2262V38.2243ZM143.641 38.2243V39.3856C143.641 41.7102 144.803 42.8715 147.128 42.8715L143.641 46.3573H146.936L150.423 42.8715H152.941V46.3573H155.266V34.7365H147.128C144.803 34.7365 143.641 35.8979 143.641 38.2224V38.2243ZM142.479 34.7385H140.154L133.18 42.7952V34.7385H130.854V46.3593H133.18L140.154 38.3025V46.3593H142.479V34.7385ZM129.691 46.3593H121.553C119.227 46.3593 118.065 45.1979 118.065 42.8734V38.2243C118.065 35.8998 119.227 34.7385 121.553 34.7385H129.691V37.063H121.553C120.778 37.063 120.391 37.4501 120.391 38.2243V42.8734C120.391 43.6476 120.778 44.0347 121.553 44.0347H129.691V46.3593ZM114.576 38.2243C114.576 37.4501 114.189 37.063 113.415 37.063H107.602V40.5489H113.415C114.189 40.5489 114.576 40.1617 114.576 39.3875V38.2262V38.2243ZM116.902 38.2243V39.3856C116.902 41.7102 115.74 42.8715 113.415 42.8715H107.602V46.3573H105.277V34.7365H113.415C115.74 34.7365 116.902 35.8979 116.902 38.2224V38.2243ZM104.113 37.063H94.8131V39.3875H101.787V41.7121H94.8131V44.0366H104.113V46.3612H92.4877V34.7404H104.113V37.0649V37.063ZM87.8368 44.0366H82.0242V41.7121H87.8368C88.6114 41.7121 88.9986 42.0992 88.9986 42.8734C88.9986 43.6476 88.6114 44.0347 87.8368 44.0347V44.0366ZM87.8368 39.3875H82.0242V37.063H87.8368C88.6114 37.063 88.9986 37.4501 88.9986 38.2243C88.9986 38.9985 88.6114 39.3856 87.8368 39.3856V39.3875ZM90.5877 40.5298C91.0779 40.0511 91.324 39.2769 91.324 38.2052C91.3107 35.894 90.1489 34.7385 87.8368 34.7385H79.6988V46.3593H87.8368C90.1623 46.3593 91.324 45.1979 91.324 42.8734C91.324 41.8151 91.0779 41.0332 90.5877 40.5298ZM78.5352 46.3593H76.2097V41.7102H69.2335V46.3593H66.908V34.7385H69.2335V39.3875H76.2097V34.7385H78.5352V46.3593ZM63.4209 43.066V38.0298C63.4209 37.2556 63.0336 36.8685 62.2591 36.8685H57.6083C56.8338 36.8685 56.4465 37.2556 56.4465 38.0298V43.066C56.4465 43.8402 56.8338 44.2273 57.6083 44.2273H62.2591C63.0336 44.2273 63.4209 43.8402 63.4209 43.066ZM65.7463 43.066C65.7463 45.3905 64.5845 46.5519 62.2591 46.5519H57.6083C55.2828 46.5519 54.1211 45.3905 54.1211 43.066V38.0298C54.1211 35.7053 55.2828 34.5439 57.6083 34.5439H62.2591C64.5845 34.5439 65.7463 35.7053 65.7463 38.0298V43.066ZM53.5393 46.3593H50.5748L46.8549 41.7102H44.2395V46.3593H41.9141V34.7385H44.2395V39.3875H46.8549L50.5748 34.7385H53.5393L48.8884 40.5489L53.5393 46.3593Z" fill="white"/>
<path d="M104.695 59.2692C104.695 60.0434 104.307 60.4305 103.533 60.4305H97.7203V56.9447H103.533C104.307 56.9447 104.695 57.3318 104.695 58.106V59.2673V59.2692ZM107.02 59.2692V58.1079C107.02 55.7834 105.858 54.622 103.533 54.622H97.7203V51.1362H95.3949V62.757H103.533C105.858 62.757 107.02 61.5957 107.02 59.2711V59.2692ZM94.2312 53.4588H89.5804V62.7551H87.255V53.4588H82.6041V51.1343H94.2293V53.4588H94.2312ZM69.8172 55.7834C69.8172 56.5576 70.2044 56.9447 70.9789 56.9447H73.3043V53.4588H70.9789C70.2044 53.4588 69.8172 53.8459 69.8172 54.6201V55.7815V55.7834ZM79.1169 54.622C79.1169 53.8478 78.7297 53.4607 77.9552 53.4607H75.6298V56.9466H77.9552C78.7297 56.9466 79.1169 56.5595 79.1169 55.7853V54.624V54.622ZM81.4424 54.622V55.7834C81.4424 58.1079 80.2806 59.2692 77.9552 59.2692H75.6298V62.7551H73.3043V59.2692H70.9789C68.6535 59.2692 67.4917 58.1079 67.4917 55.7834V54.622C67.4917 52.2975 68.6535 51.1362 70.9789 51.1362H77.9552C80.2806 51.1362 81.4424 52.2975 81.4424 54.622ZM66.3281 53.4607H57.0283V55.7853H64.0046V58.1098H57.0283V60.4344H66.3281V62.7589H54.7029V51.1381H66.3281V53.4626V53.4607ZM53.5392 62.757H51.2138V58.1079H44.2375V62.757H41.9121V51.1362H44.2375V55.7853H51.2138V51.1362H53.5392V62.757Z" fill="white"/>
</g>
<defs>
<clipPath id="clip0_9437_1858">
<rect width="155.267" height="61.8321" fill="white" transform="translate(0 0.924805)"/>
</clipPath>
</defs>
</svg>
