<svg width="32" height="33" viewBox="0 0 32 33" fill="none" xmlns="http://www.w3.org/2000/svg">
<path fill-rule="evenodd" clip-rule="evenodd" d="M21.1992 10.8547C19.7169 9.59034 17.824 8.91039 15.8759 8.94249C13.9278 8.97459 12.0583 9.71654 10.6184 11.0291C9.17845 12.3416 8.26701 14.1346 8.05512 16.0714C7.84323 18.0082 8.34545 19.9558 9.46753 21.5486C9.66838 21.8337 9.70618 22.2029 9.56727 22.5228L8.6597 24.613L11.8746 24.04C12.0836 24.0028 12.2991 24.033 12.4898 24.1264C14.2396 24.9832 16.2421 25.1719 18.1212 24.6572C20.0004 24.1424 21.6271 22.9596 22.6961 21.3306C23.7651 19.7017 24.2028 17.7386 23.9272 15.8098C23.6517 13.8811 22.6816 12.1191 21.1992 10.8547ZM15.8429 6.94276C18.2781 6.90264 20.6441 7.75257 22.4971 9.33307C24.3501 10.9136 25.5626 13.116 25.9071 15.527C26.2516 17.9379 25.7044 20.3918 24.3682 22.428C23.0319 24.4641 20.9985 25.9427 18.6496 26.5861C16.4083 27.2 14.0268 27.0134 11.9131 26.0647L7.17546 26.909C6.81274 26.9737 6.44385 26.8336 6.21542 26.5445C5.98698 26.2555 5.936 25.8642 6.08275 25.5262L7.51671 22.2238C6.33688 20.3274 5.8229 18.085 6.06699 15.8539C6.33185 13.4329 7.47114 11.1917 9.27106 9.55101C11.071 7.91032 13.4078 6.98289 15.8429 6.94276ZM12.4393 12.8639C12.7207 12.5826 13.1022 12.4246 13.5 12.4246C13.8978 12.4246 14.2794 12.5826 14.5607 12.8639C14.842 13.1452 15 13.5267 15 13.9246V14.9246C15 15.3224 14.842 15.7039 14.5607 15.9852C14.4595 16.0864 14.3454 16.1716 14.2222 16.2392C14.4187 16.8037 14.741 17.3224 15.1716 17.753C15.6022 18.1836 16.1209 18.5059 16.6853 18.7023C16.753 18.5792 16.8382 18.4651 16.9394 18.3639C17.2207 18.0826 17.6022 17.9246 18 17.9246H19C19.3978 17.9246 19.7794 18.0826 20.0607 18.3639C20.342 18.6452 20.5 19.0267 20.5 19.4246C20.5 19.8224 20.342 20.2039 20.0607 20.4852C19.7794 20.7665 19.3978 20.9246 19 20.9246H18C16.4087 20.9246 14.8826 20.2924 13.7574 19.1672C12.6322 18.042 12 16.5159 12 14.9246V13.9246C12 13.5267 12.158 13.1452 12.4393 12.8639Z" fill="#DEE2E6"/>
</svg>
